<?xml version="1.0" encoding="UTF-8"?><svg id="Layer_2" xmlns="http://www.w3.org/2000/svg" viewBox="0 0 44.07 44.08"><defs><style>.cls-1{fill:#f3a69f;}</style></defs><g id="Layer_1-2"><g><path class="cls-1" d="M36.78,19.57c-1.66-1.66-3.95-2.68-6.48-2.68-4.56,0-8.27,3.7-8.27,8.27,0-4.57-3.7-8.27-8.27-8.27-2.53,0-4.82,1.02-6.48,2.68-1.66,1.65-2.68,3.95-2.68,6.48v.61c0,9.62,7.8,17.43,17.43,17.43s17.43-7.8,17.43-17.43v-.61c0-2.53-1.02-4.82-2.68-6.48Zm-15.93,22.5c-7.94,0-14.37-6.67-14.37-14.9v-.52c0-2.16,.85-4.12,2.21-5.53,1.37-1.42,3.26-2.29,5.34-2.29,3.77,0,6.82,3.16,6.82,7.06v16.18Zm16.52-14.9c0,8.23-6.44,14.9-14.37,14.9V25.9c0-3.9,3.05-7.06,6.82-7.06,2.09,0,3.98,.87,5.34,2.29,1.37,1.42,2.21,3.37,2.21,5.53v.52Z"/><path class="cls-1" d="M21.83,6.39c-3.05,0-5.53,2.47-5.53,5.53s2.47,5.52,5.53,5.52,5.52-2.47,5.52-5.52-2.47-5.53-5.52-5.53Zm0,9.3c-2.08,0-3.77-1.69-3.77-3.77s1.69-3.77,3.77-3.77,3.77,1.69,3.77,3.77-1.69,3.77-3.77,3.77Z"/><path class="cls-1" d="M44.07,22.03C44.07,9.87,34.2,0,22.03,0S0,9.87,0,22.03c0,.6,.03,1.2,.07,1.8H1.84c-.05-.59-.08-1.19-.08-1.8C1.76,10.84,10.84,1.76,22.03,1.76s20.27,9.07,20.27,20.27c0,.61-.03,1.2-.08,1.8h1.77c.05-.59,.07-1.19,.07-1.8Z"/></g></g></svg>